# xmcd
#
# Track frame offsets:
#	150
#	22505
#	40458
#	82772
#	96408
#	116436
#	130288
#	155160
#	171283
#
# Disc length: 2497 seconds
#
# Revision: 0
# Processed by: cddbd v1.5.2PL0 Copyright (c) Steve Scherf et al.
# Submitted via: EZCDAudioConverter 2.1.7.1
#
DISCID=6909bf09
DTITLE=Minoru Muraoka - Bamboo
DYEAR=1900
DGENRE=
TTITLE0=Take Five
TTITLE1=Mogamigawa Funauta
TTITLE2=The Positive And The Negative
TTITLE3=And I Love Her
TTITLE4=The House Of The Rising Sun
TTITLE5=Do You Know The Way To San Jose
TTITLE6=Soul Bamboo
TTITLE7=Call Me
TTITLE8=Scarborough Fair
EXTD=
EXTT0=
EXTT1=
EXTT2=
EXTT3=
EXTT4=
EXTT5=
EXTT6=
EXTT7=
EXTT8=
PLAYORDER=
